# xmcd CD database file
#
# Track frame offsets:
#	150
#	22094
#	35084
#	48076
#	68326
#	85080
#	97543
#	115372
#	125507
#	138019
#	155847
#	169172
#	182888
#	196105
#	211441
#	225642
#	237998
#	249280
#	261174
#	271971
#
# Disc length: 3785 seconds
#
# Revision: 0
# Processed by: cddbd v1.5.2PL0 Copyright (c) Steve Scherf et al.
# Submitted via: CDex 2.14
#
DISCID=0b0ec714
DTITLE=Various Artist - Swamp Gold Country Vol. 2
DYEAR=2007
DGENRE=Country
TTITLE0=It Ain't Gonna Rain No More - Moe-D
TTITLE1=To Satisfy My Man - Peggy Scott and the Volunteers
TTITLE2=May You Never Be Alone - Norman Wade
TTITLE3=Old Fool In The Mirror - Moe-D
TTITLE4=I Can't Stop Loving You - Belton Richard
TTITLE5=Blue Yesterday - Johnny Webb
TTITLE6=Julie's 16th Birthday - John Bult
TTITLE7=You're So Easy To Love - Jimmy C. Newman
TTITLE8=Cheatin's A Sin - Dunice Theriot
TTITLE9=Empty Glass - Richard LeBouef and Two Step
TTITLE10=I'm Leaving You - Don Rich
TTITLE11=Her Side Of Offshore Blues - Debbie Folse
TTITLE12=Shackles And Chains - Norman Wade
TTITLE13=How Long Will This Hurtin' Last - Moe-D
TTITLE14=The More I Drink - Don Rich
TTITLE15=Here I Go Again - Johnny Webb
TTITLE16=Come On Bottle Do Your Thing - George Freeman
TTITLE17=I Wonder Where You Are Tonight - Johnnie Allan
TTITLE18=I May Be Wrong But You Look Right - Norman Wade
TTITLE19=Gear Jammers Helper - Big John Trimble and the Beavers Retrievers
EXTD=YEAR: 2007
EXTT0=
EXTT1=
EXTT2=
EXTT3=
EXTT4=
EXTT5=
EXTT6=
EXTT7=
EXTT8=
EXTT9=
EXTT10=
EXTT11=
EXTT12=
EXTT13=
EXTT14=
EXTT15=
EXTT16=
EXTT17=
EXTT18=
EXTT19=
PLAYORDER=
